# xmcd CD database file
#
# Track frame offsets:
#	150
#	13393
#	28595
#	41930
#	59035
#	69450
#	80770
#	94265
#	108435
#	119010
#	133218
#	143890
#	156933
#	169498
#	181095
#
# Disc length: 2618 seconds
#
# Revision: 1
# Processed by: cddbd v1.5.1PL0 Copyright (c) Steve Scherf et al.
# Submitted via: CDex 1.60beta1
#
DISCID=e80a380f
DTITLE=Kenny Rogers - Shine On Ruby Mountain
DYEAR=1900
DGENRE=Country
TTITLE0=Ruby Don`t Take your Love to Town
TTITLE1=For The Good Times
TTITLE2=Sleep Comes Easy
TTITLE3=Something`s Burning
TTITLE4=Trying Just As Hard
TTITLE5=Hurry Up Love
TTITLE6=Shine On Ruby Mountain
TTITLE7=Sunshine
TTITLE8=Ticket To Nowhere
TTITLE9=Laser
TTITLE10=She Even Wake Me Up To Say Goodbye
TTITLE11=Run Thro`your Mind
TTITLE12=Ruben James
TTITLE13=Me And Bobby McGee
TTITLE14=My Washington Woman
EXTD=
EXTT0=
EXTT1=
EXTT2=
EXTT3=
EXTT4=
EXTT5=
EXTT6=
EXTT7=
EXTT8=
EXTT9=
EXTT10=
EXTT11=
EXTT12=
EXTT13=
EXTT14=
PLAYORDER=
